<svg id="visual" viewBox="0 0 1920 1080" width="1920" height="1080" xmlns="http://www.w3.org/2000/svg" xmlns:xlink="http://www.w3.org/1999/xlink" version="1.1"><path d="M0 969L29.2 966.5C58.3 964 116.7 959 174.8 961C233 963 291 972 349.2 978C407.3 984 465.7 987 523.8 987.8C582 988.7 640 987.3 698.2 981.5C756.3 975.7 814.7 965.3 872.8 959.3C931 953.3 989 951.7 1047.2 955C1105.3 958.3 1163.7 966.7 1221.8 967C1280 967.3 1338 959.7 1396.2 962.3C1454.3 965 1512.7 978 1570.8 980.2C1629 982.3 1687 973.7 1745.2 967.8C1803.3 962 1861.7 959 1890.8 957.5L1920 956L1920 1081L1890.8 1081C1861.7 1081 1803.3 1081 1745.2 1081C1687 1081 1629 1081 1570.8 1081C1512.7 1081 1454.3 1081 1396.2 1081C1338 1081 1280 1081 1221.8 1081C1163.7 1081 1105.3 1081 1047.2 1081C989 1081 931 1081 872.8 1081C814.7 1081 756.3 1081 698.2 1081C640 1081 582 1081 523.8 1081C465.7 1081 407.3 1081 349.2 1081C291 1081 233 1081 174.8 1081C116.7 1081 58.3 1081 29.2 1081L0 1081Z" fill="#f5f5f4" stroke-linecap="round" stroke-linejoin="miter"></path></svg>