<svg id="visual" viewBox="0 0 1920 1080" width="1920" height="1080" xmlns="http://www.w3.org/2000/svg" xmlns:xlink="http://www.w3.org/1999/xlink" version="1.1"><path d="M0 984L35.5 987.2C71 990.3 142 996.7 213.2 994.8C284.3 993 355.7 983 426.8 982.7C498 982.3 569 991.7 640 991.2C711 990.7 782 980.3 853.2 972.2C924.3 964 995.7 958 1066.8 953.7C1138 949.3 1209 946.7 1280 952.8C1351 959 1422 974 1493.2 980C1564.3 986 1635.7 983 1706.8 985.2C1778 987.3 1849 994.7 1884.5 998.3L1920 1002L1920 1081L1884.5 1081C1849 1081 1778 1081 1706.8 1081C1635.7 1081 1564.3 1081 1493.2 1081C1422 1081 1351 1081 1280 1081C1209 1081 1138 1081 1066.8 1081C995.7 1081 924.3 1081 853.2 1081C782 1081 711 1081 640 1081C569 1081 498 1081 426.8 1081C355.7 1081 284.3 1081 213.2 1081C142 1081 71 1081 35.5 1081L0 1081Z" fill="#0084cb" stroke-linecap="round" stroke-linejoin="miter"></path></svg>