<svg id="visual" viewBox="0 0 1920 1080" width="1920" height="1080" xmlns="http://www.w3.org/2000/svg" xmlns:xlink="http://www.w3.org/1999/xlink" version="1.1"><rect x="0" y="0" width="1920" height="1080" fill="#f5f5f4"></rect><path d="M0 410L21.3 417.8C42.7 425.7 85.3 441.3 128 437.7C170.7 434 213.3 411 256 396.5C298.7 382 341.3 376 384 383.8C426.7 391.7 469.3 413.3 512 437.8C554.7 462.3 597.3 489.7 640 502.8C682.7 516 725.3 515 768 490.5C810.7 466 853.3 418 896 409.8C938.7 401.7 981.3 433.3 1024 457.8C1066.7 482.3 1109.3 499.7 1152 498.7C1194.7 497.7 1237.3 478.3 1280 469.2C1322.7 460 1365.3 461 1408 453.3C1450.7 445.7 1493.3 429.3 1536 413.8C1578.7 398.3 1621.3 383.7 1664 392C1706.7 400.3 1749.3 431.7 1792 427.5C1834.7 423.3 1877.3 383.7 1898.7 363.8L1920 344L1920 1081L1898.7 1081C1877.3 1081 1834.7 1081 1792 1081C1749.3 1081 1706.7 1081 1664 1081C1621.3 1081 1578.7 1081 1536 1081C1493.3 1081 1450.7 1081 1408 1081C1365.3 1081 1322.7 1081 1280 1081C1237.3 1081 1194.7 1081 1152 1081C1109.3 1081 1066.7 1081 1024 1081C981.3 1081 938.7 1081 896 1081C853.3 1081 810.7 1081 768 1081C725.3 1081 682.7 1081 640 1081C597.3 1081 554.7 1081 512 1081C469.3 1081 426.7 1081 384 1081C341.3 1081 298.7 1081 256 1081C213.3 1081 170.7 1081 128 1081C85.3 1081 42.7 1081 21.3 1081L0 1081Z" fill="#0084cb"></path><path d="M0 580L21.3 561.8C42.7 543.7 85.3 507.3 128 496.3C170.7 485.3 213.3 499.7 256 495.3C298.7 491 341.3 468 384 473.2C426.7 478.3 469.3 511.7 512 513.8C554.7 516 597.3 487 640 500.2C682.7 513.3 725.3 568.7 768 596.8C810.7 625 853.3 626 896 616.8C938.7 607.7 981.3 588.3 1024 575.8C1066.7 563.3 1109.3 557.7 1152 557.5C1194.7 557.3 1237.3 562.7 1280 572.3C1322.7 582 1365.3 596 1408 586.2C1450.7 576.3 1493.3 542.7 1536 535.5C1578.7 528.3 1621.3 547.7 1664 546.8C1706.7 546 1749.3 525 1792 526.5C1834.7 528 1877.3 552 1898.7 564L1920 576L1920 1081L1898.7 1081C1877.3 1081 1834.7 1081 1792 1081C1749.3 1081 1706.7 1081 1664 1081C1621.3 1081 1578.7 1081 1536 1081C1493.3 1081 1450.7 1081 1408 1081C1365.3 1081 1322.7 1081 1280 1081C1237.3 1081 1194.7 1081 1152 1081C1109.3 1081 1066.7 1081 1024 1081C981.3 1081 938.7 1081 896 1081C853.3 1081 810.7 1081 768 1081C725.3 1081 682.7 1081 640 1081C597.3 1081 554.7 1081 512 1081C469.3 1081 426.7 1081 384 1081C341.3 1081 298.7 1081 256 1081C213.3 1081 170.7 1081 128 1081C85.3 1081 42.7 1081 21.3 1081L0 1081Z" fill="#0278b8"></path><path d="M0 565L21.3 572.5C42.7 580 85.3 595 128 601.3C170.7 607.7 213.3 605.3 256 619.2C298.7 633 341.3 663 384 658C426.7 653 469.3 613 512 599.5C554.7 586 597.3 599 640 602.2C682.7 605.3 725.3 598.7 768 595C810.7 591.3 853.3 590.7 896 604.7C938.7 618.7 981.3 647.3 1024 651.2C1066.7 655 1109.3 634 1152 632C1194.7 630 1237.3 647 1280 661.8C1322.7 676.7 1365.3 689.3 1408 675.3C1450.7 661.3 1493.3 620.7 1536 620.5C1578.7 620.3 1621.3 660.7 1664 681.8C1706.7 703 1749.3 705 1792 702.5C1834.7 700 1877.3 693 1898.7 689.5L1920 686L1920 1081L1898.7 1081C1877.3 1081 1834.7 1081 1792 1081C1749.3 1081 1706.7 1081 1664 1081C1621.3 1081 1578.7 1081 1536 1081C1493.3 1081 1450.7 1081 1408 1081C1365.3 1081 1322.7 1081 1280 1081C1237.3 1081 1194.7 1081 1152 1081C1109.3 1081 1066.7 1081 1024 1081C981.3 1081 938.7 1081 896 1081C853.3 1081 810.7 1081 768 1081C725.3 1081 682.7 1081 640 1081C597.3 1081 554.7 1081 512 1081C469.3 1081 426.7 1081 384 1081C341.3 1081 298.7 1081 256 1081C213.3 1081 170.7 1081 128 1081C85.3 1081 42.7 1081 21.3 1081L0 1081Z" fill="#046ca5"></path><path d="M0 691L21.3 712C42.7 733 85.3 775 128 784.8C170.7 794.7 213.3 772.3 256 771.2C298.7 770 341.3 790 384 778.3C426.7 766.7 469.3 723.3 512 720.5C554.7 717.7 597.3 755.3 640 778.5C682.7 801.7 725.3 810.3 768 814.8C810.7 819.3 853.3 819.7 896 800.2C938.7 780.7 981.3 741.3 1024 736.7C1066.7 732 1109.3 762 1152 756.3C1194.7 750.7 1237.3 709.3 1280 706.8C1322.7 704.3 1365.3 740.7 1408 758.7C1450.7 776.7 1493.3 776.3 1536 772.8C1578.7 769.3 1621.3 762.7 1664 760.7C1706.7 758.7 1749.3 761.3 1792 748C1834.7 734.7 1877.3 705.3 1898.7 690.7L1920 676L1920 1081L1898.7 1081C1877.3 1081 1834.7 1081 1792 1081C1749.3 1081 1706.7 1081 1664 1081C1621.3 1081 1578.7 1081 1536 1081C1493.3 1081 1450.7 1081 1408 1081C1365.3 1081 1322.7 1081 1280 1081C1237.3 1081 1194.7 1081 1152 1081C1109.3 1081 1066.7 1081 1024 1081C981.3 1081 938.7 1081 896 1081C853.3 1081 810.7 1081 768 1081C725.3 1081 682.7 1081 640 1081C597.3 1081 554.7 1081 512 1081C469.3 1081 426.7 1081 384 1081C341.3 1081 298.7 1081 256 1081C213.3 1081 170.7 1081 128 1081C85.3 1081 42.7 1081 21.3 1081L0 1081Z" fill="#066093"></path><path d="M0 912L21.3 897.5C42.7 883 85.3 854 128 846.3C170.7 838.7 213.3 852.3 256 849.5C298.7 846.7 341.3 827.3 384 816.8C426.7 806.3 469.3 804.7 512 810C554.7 815.3 597.3 827.7 640 844.3C682.7 861 725.3 882 768 875C810.7 868 853.3 833 896 822.8C938.7 812.7 981.3 827.3 1024 838.7C1066.7 850 1109.3 858 1152 856.2C1194.7 854.3 1237.3 842.7 1280 851.5C1322.7 860.3 1365.3 889.7 1408 881.5C1450.7 873.3 1493.3 827.7 1536 819.7C1578.7 811.7 1621.3 841.3 1664 850.5C1706.7 859.7 1749.3 848.3 1792 849.3C1834.7 850.3 1877.3 863.7 1898.7 870.3L1920 877L1920 1081L1898.7 1081C1877.3 1081 1834.7 1081 1792 1081C1749.3 1081 1706.7 1081 1664 1081C1621.3 1081 1578.7 1081 1536 1081C1493.3 1081 1450.7 1081 1408 1081C1365.3 1081 1322.7 1081 1280 1081C1237.3 1081 1194.7 1081 1152 1081C1109.3 1081 1066.7 1081 1024 1081C981.3 1081 938.7 1081 896 1081C853.3 1081 810.7 1081 768 1081C725.3 1081 682.7 1081 640 1081C597.3 1081 554.7 1081 512 1081C469.3 1081 426.7 1081 384 1081C341.3 1081 298.7 1081 256 1081C213.3 1081 170.7 1081 128 1081C85.3 1081 42.7 1081 21.3 1081L0 1081Z" fill="#085581"></path><path d="M0 927L21.3 937.7C42.7 948.3 85.3 969.7 128 978.8C170.7 988 213.3 985 256 976.8C298.7 968.7 341.3 955.3 384 953.8C426.7 952.3 469.3 962.7 512 955.3C554.7 948 597.3 923 640 929.5C682.7 936 725.3 974 768 980.3C810.7 986.7 853.3 961.3 896 942.3C938.7 923.3 981.3 910.7 1024 904.5C1066.7 898.3 1109.3 898.7 1152 912.8C1194.7 927 1237.3 955 1280 971.5C1322.7 988 1365.3 993 1408 979.5C1450.7 966 1493.3 934 1536 929.8C1578.7 925.7 1621.3 949.3 1664 958.8C1706.7 968.3 1749.3 963.7 1792 953.2C1834.7 942.7 1877.3 926.3 1898.7 918.2L1920 910L1920 1081L1898.7 1081C1877.3 1081 1834.7 1081 1792 1081C1749.3 1081 1706.7 1081 1664 1081C1621.3 1081 1578.7 1081 1536 1081C1493.3 1081 1450.7 1081 1408 1081C1365.3 1081 1322.7 1081 1280 1081C1237.3 1081 1194.7 1081 1152 1081C1109.3 1081 1066.7 1081 1024 1081C981.3 1081 938.7 1081 896 1081C853.3 1081 810.7 1081 768 1081C725.3 1081 682.7 1081 640 1081C597.3 1081 554.7 1081 512 1081C469.3 1081 426.7 1081 384 1081C341.3 1081 298.7 1081 256 1081C213.3 1081 170.7 1081 128 1081C85.3 1081 42.7 1081 21.3 1081L0 1081Z" fill="#0a4a70"></path></svg>