<svg id="visual" viewBox="0 0 1920 1080" width="1920" height="1080" xmlns="http://www.w3.org/2000/svg" xmlns:xlink="http://www.w3.org/1999/xlink" version="1.1"><path d="M0 953L26.7 960.7C53.3 968.3 106.7 983.7 160 984.8C213.3 986 266.7 973 320 971.2C373.3 969.3 426.7 978.7 480 973.3C533.3 968 586.7 948 640 943.3C693.3 938.7 746.7 949.3 800 958.8C853.3 968.3 906.7 976.7 960 975.7C1013.3 974.7 1066.7 964.3 1120 966.2C1173.3 968 1226.7 982 1280 978.8C1333.3 975.7 1386.7 955.3 1440 945.2C1493.3 935 1546.7 935 1600 945.5C1653.3 956 1706.7 977 1760 980.5C1813.3 984 1866.7 970 1893.3 963L1920 956L1920 1081L1893.3 1081C1866.7 1081 1813.3 1081 1760 1081C1706.7 1081 1653.3 1081 1600 1081C1546.7 1081 1493.3 1081 1440 1081C1386.7 1081 1333.3 1081 1280 1081C1226.7 1081 1173.3 1081 1120 1081C1066.7 1081 1013.3 1081 960 1081C906.7 1081 853.3 1081 800 1081C746.7 1081 693.3 1081 640 1081C586.7 1081 533.3 1081 480 1081C426.7 1081 373.3 1081 320 1081C266.7 1081 213.3 1081 160 1081C106.7 1081 53.3 1081 26.7 1081L0 1081Z" fill="#f97316" stroke-linecap="round" stroke-linejoin="miter"></path></svg>