<svg id="visual" viewBox="0 0 1920 1080" width="1920" height="1080" xmlns="http://www.w3.org/2000/svg" xmlns:xlink="http://www.w3.org/1999/xlink" version="1.1"><path d="M0 941L26.7 941.7C53.3 942.3 106.7 943.7 160 953.3C213.3 963 266.7 981 320 983C373.3 985 426.7 971 480 961.7C533.3 952.3 586.7 947.7 640 951.7C693.3 955.7 746.7 968.3 800 972.5C853.3 976.7 906.7 972.3 960 969.5C1013.3 966.7 1066.7 965.3 1120 968.8C1173.3 972.3 1226.7 980.7 1280 983C1333.3 985.3 1386.7 981.7 1440 974.7C1493.3 967.7 1546.7 957.3 1600 957.7C1653.3 958 1706.7 969 1760 973.5C1813.3 978 1866.7 976 1893.3 975L1920 974L1920 1081L1893.3 1081C1866.7 1081 1813.3 1081 1760 1081C1706.7 1081 1653.3 1081 1600 1081C1546.7 1081 1493.3 1081 1440 1081C1386.7 1081 1333.3 1081 1280 1081C1226.7 1081 1173.3 1081 1120 1081C1066.7 1081 1013.3 1081 960 1081C906.7 1081 853.3 1081 800 1081C746.7 1081 693.3 1081 640 1081C586.7 1081 533.3 1081 480 1081C426.7 1081 373.3 1081 320 1081C266.7 1081 213.3 1081 160 1081C106.7 1081 53.3 1081 26.7 1081L0 1081Z" fill="#f5f5f4" stroke-linecap="round" stroke-linejoin="miter"></path></svg>